# xmcd
#
# Track frame offsets:
#	150
#	27365
#	46115
#	66371
#	86753
#	104822
#	108267
#	128133
#	146963
#
# Disc length: 2262 seconds
#
# Revision: 0
# Processed by: cddbd v1.5.2PL0 Copyright (c) Steve Scherf et al.
# Submitted via: EasyCDDAExtractor 12.0.2.1
#
DISCID=8308d409
DTITLE=브라운 아이드 소울 - It' Soul Right
DYEAR=2019
DGENRE=Soul
TTITLE0=It' Soul Right
TTITLE1=Right
TTITLE2=그대의 밤, 나의 아침
TTITLE3=Better Together
TTITLE4=Sing your Song
TTITLE5=2019. 7. 14 PM 2:49
TTITLE6=비가 그치면
TTITLE7=Right (Morning Mood Version)
TTITLE8=Better Together (O.S.R Version)
EXTD=
EXTT0=
EXTT1=
EXTT2=
EXTT3=
EXTT4=
EXTT5=
EXTT6=
EXTT7=
EXTT8=
PLAYORDER=
